<?xml version="1.0" encoding="utf-8"?>
<!-- Generator: Adobe Illustrator 18.1.0, SVG Export Plug-In . SVG Version: 6.00 Build 0)  -->
<svg version="1.1" id="Layer_1" xmlns="http://www.w3.org/2000/svg" xmlns:xlink="http://www.w3.org/1999/xlink" x="0px" y="0px"
	 viewBox="-124 126 50 50" enable-background="new -124 126 50 50" xml:space="preserve">
<g>
	<path fill="none" stroke="#FF1744" stroke-width="2" stroke-linecap="round" stroke-linejoin="round" stroke-miterlimit="10" d="
		M-80.8,135.8c-1.4-1.4-24.2,19.9-24.2,19.9s-2.8-0.6-4.3,0.9c-1.5,1.5-3.1,4.9-1.9,9.5c0,0,0.7-2.1,4.2-1s5.9-1.2,6.2-2.9
		s0.2-2.4,0.2-2.4S-79.4,137.2-80.8,135.8z"/>
	<path fill="none" stroke="#FF1744" stroke-width="2" stroke-linecap="round" stroke-linejoin="round" stroke-miterlimit="10" d="
		M-100.5,159.9c0,0-2.2-4-4.4-4.1"/>
	<path fill="none" stroke="#FF1744" stroke-width="2" stroke-linecap="round" stroke-linejoin="round" stroke-miterlimit="10" d="
		M-111.2,166.2c0,0-8.8-13.1-5.3-16.6s11.9,0.5,13.3-2.4c1.4-2.9-5.3-5.6-3.2-7.7s5.4,0.3,5.5,1.2"/>
	<path fill="none" stroke="#FF1744" stroke-width="2" stroke-linecap="round" stroke-linejoin="round" stroke-miterlimit="10" d="
		M-97.7,156.7c0,0-2.4-3.4-4.3-3.7"/>
</g>
</svg>
