<?xml version="1.0" standalone="no"?>
<!DOCTYPE svg PUBLIC "-//W3C//DTD SVG 20010904//EN"
 "http://www.w3.org/TR/2001/REC-SVG-20010904/DTD/svg10.dtd">
<svg version="1.0" xmlns="http://www.w3.org/2000/svg"
 width="700.000000pt" height="700.000000pt" viewBox="0 0 700.000000 700.000000"
 preserveAspectRatio="xMidYMid meet">
<metadata>
Created by potrace 1.11, written by Peter Selinger 2001-2013
</metadata>
<g transform="translate(0.000000,700.000000) scale(0.100000,-0.100000)"
fill="#000000" stroke="none">
<path d="M3285 6994 c-305 -30 -421 -48 -631 -99 -476 -117 -944 -348 -1339
-661 -141 -113 -436 -408 -549 -549 -409 -516 -656 -1108 -742 -1780 -25 -196
-25 -614 0 -810 86 -672 333 -1264 742 -1780 113 -141 408 -436 549 -549 516
-409 1108 -656 1780 -742 196 -25 614 -25 810 0 672 86 1264 333 1780 742 141
113 436 408 549 549 409 516 656 1108 742 1780 25 196 25 614 0 810 -86 672
-333 1264 -742 1780 -113 141 -408 436 -549 549 -515 408 -1109 657 -1775 741
-117 15 -536 28 -625 19z m557 -905 c442 -110 776 -198 794 -210 39 -24 62
-69 69 -140 6 -61 154 -2949 158 -3079 2 -74 -1 -90 -21 -122 -25 -41 -91 -78
-138 -78 -16 0 -185 31 -374 69 -190 38 -346 68 -347 67 -1 -1 41 -384 93
-851 51 -467 94 -864 94 -882 0 -47 -18 -79 -60 -108 -68 -47 -156 -46 -213 5
-24 21 -236 436 -896 1757 -794 1590 -863 1732 -864 1779 -1 96 64 164 157
164 28 0 319 -58 646 -129 327 -71 596 -128 596 -128 1 1 -146 425 -327 942
-223 639 -329 953 -329 981 0 77 81 153 163 154 20 0 380 -86 799 -191z"/>
</g>
</svg>
