<?xml version="1.0" encoding="utf-8"?>
<!-- Generator: Adobe Illustrator 16.0.0, SVG Export Plug-In . SVG Version: 6.00 Build 0)  -->
<!DOCTYPE svg PUBLIC "-//W3C//DTD SVG 1.1//EN" "http://www.w3.org/Graphics/SVG/1.1/DTD/svg11.dtd">
<svg version="1.1" id="Layer_1" xmlns:figma="http://www.figma.com/figma/ns"
	 xmlns="http://www.w3.org/2000/svg" xmlns:xlink="http://www.w3.org/1999/xlink" x="0px" y="0px" width="50px" height="50px"
	 viewBox="0 0 50 50" enable-background="new 0 0 50 50" xml:space="preserve">
<title>Union (Stroke)</title>
<desc>Created using Figma</desc>
<g>
	<path fill="none" stroke="#FF1744" stroke-width="2" stroke-miterlimit="10" d="M47.521,16.701c0,0-0.533-3.179-1.796-4.623
		l-3.178,3.178c-2.403,2.404-6.145,2.56-8.355,0.35c-2.21-2.21-2.054-5.952,0.35-8.355l3.188-3.188
		c-1.604-1.37-5.15-1.458-5.15-1.458s-2.565,1.654-4.77,3.858c-2.778,2.779-3.568,6.656-0.487,11.139L3.494,41.473
		c-1.354,1.354-1.354,3.552,0.001,4.907c1.356,1.355,3.553,1.355,4.907,0.001l23.913-23.77c4.51,3.133,8.413,2.351,11.205-0.44
		C45.757,19.933,47.521,16.701,47.521,16.701z"/>
</g>
</svg>
